<svg xmlns="http://www.w3.org/2000/svg" xmlns:xlink="http://www.w3.org/1999/xlink" width="512" zoomAndPan="magnify" viewBox="0 0 384 383.999986" height="512" preserveAspectRatio="xMidYMid meet" version="1.0"><defs><g/><clipPath id="afd7a4e2da"><path d="M 0.71875 0.398438 L 211 0.398438 L 211 114.640625 L 0.71875 114.640625 Z M 0.71875 0.398438 " clip-rule="nonzero"/></clipPath><clipPath id="bd52078ad5"><rect x="0" width="211" y="0" height="115"/></clipPath><clipPath id="3f4643bf10"><path d="M 211 0.398438 L 323.761719 0.398438 L 323.761719 114.640625 L 211 114.640625 Z M 211 0.398438 " clip-rule="nonzero"/></clipPath><clipPath id="cf79aa49c0"><rect x="0" width="113" y="0" height="115"/></clipPath><clipPath id="cff2fd9704"><rect x="0" width="324" y="0" height="115"/></clipPath></defs><rect x="-38.4" width="460.8" fill="#ffffff" y="-38.399999" height="460.799983" fill-opacity="1"/><rect x="-38.4" width="460.8" fill="#0a0a0a" y="-38.399999" height="460.799983" fill-opacity="1"/><g transform="matrix(1, 0, 0, 1, 30, 134)"><g clip-path="url(#cff2fd9704)"><g clip-path="url(#afd7a4e2da)"><g><g clip-path="url(#bd52078ad5)"><g fill="#cdff00" fill-opacity="1"><g transform="translate(1.33889, 95.124982)"><g><path d="M 9.3125 0 C 10.007812 0.570312 10.769531 0.859375 11.59375 0.859375 C 12.539062 0.859375 13.457031 0.664062 14.34375 0.28125 C 15.226562 -0.0898438 16.144531 -0.25 17.09375 -0.1875 C 19.695312 -0.125 22.328125 -0.0625 24.984375 0 C 27.640625 0.0625 30.269531 0.0625 32.875 0 C 40.664062 0 48.46875 0.046875 56.28125 0.140625 C 64.101562 0.234375 71.910156 0.1875 79.703125 0 C 82.867188 -0.125 86.035156 -0.203125 89.203125 -0.234375 C 92.367188 -0.265625 95.535156 -0.0273438 98.703125 0.46875 C 99.398438 0.53125 100.144531 0.46875 100.9375 0.28125 C 101.726562 0.09375 102.09375 -0.472656 102.03125 -1.421875 C 102.03125 -1.742188 102 -2.0625 101.9375 -2.375 C 101.875 -2.6875 101.78125 -2.972656 101.65625 -3.234375 C 101.394531 -4.429688 101.359375 -5.582031 101.546875 -6.6875 C 101.742188 -7.800781 101.9375 -8.960938 102.125 -10.171875 C 102.25 -10.796875 102.296875 -11.582031 102.265625 -12.53125 C 102.234375 -13.488281 101.773438 -14.09375 100.890625 -14.34375 C 100.191406 -14.53125 99.460938 -14.46875 98.703125 -14.15625 C 97.941406 -13.84375 97.179688 -13.6875 96.421875 -13.6875 C 95.222656 -13.6875 94.414062 -13.75 94 -13.875 C 93.59375 -14 92.753906 -14.0625 91.484375 -14.0625 C 90.210938 -14.0625 88.925781 -14.046875 87.625 -14.015625 C 86.332031 -13.984375 85.054688 -13.96875 83.796875 -13.96875 C 79.867188 -13.90625 75.925781 -13.875 71.96875 -13.875 C 68.007812 -13.875 64.066406 -13.875 60.140625 -13.875 C 56.335938 -13.875 52.535156 -13.84375 48.734375 -13.78125 C 44.929688 -13.71875 41.128906 -13.75 37.328125 -13.875 C 36.378906 -13.875 35.414062 -13.921875 34.4375 -14.015625 C 33.457031 -14.109375 32.492188 -14.0625 31.546875 -13.875 C 30.910156 -13.75 30.164062 -13.539062 29.3125 -13.25 C 28.457031 -12.96875 27.710938 -13.113281 27.078125 -13.6875 C 26.753906 -14 26.5625 -14.375 26.5 -14.8125 C 26.4375 -15.257812 26.4375 -15.707031 26.5 -16.15625 C 26.625 -17.675781 26.75 -19.175781 26.875 -20.65625 C 27.007812 -22.144531 27.078125 -23.648438 27.078125 -25.171875 C 27.078125 -26.816406 27.078125 -28.476562 27.078125 -30.15625 C 27.078125 -31.84375 27.046875 -33.476562 26.984375 -35.0625 C 26.921875 -38.226562 26.875 -41.425781 26.84375 -44.65625 C 26.8125 -47.882812 26.828125 -51.050781 26.890625 -54.15625 C 26.890625 -55.800781 26.921875 -57.398438 26.984375 -58.953125 C 27.046875 -60.503906 27.203125 -62.070312 27.453125 -63.65625 C 27.515625 -63.96875 27.5625 -64.296875 27.59375 -64.640625 C 27.625 -64.992188 27.609375 -65.328125 27.546875 -65.640625 C 27.359375 -66.273438 26.976562 -66.6875 26.40625 -66.875 C 25.84375 -67.070312 25.273438 -67.101562 24.703125 -66.96875 C 24.128906 -66.84375 23.554688 -66.734375 22.984375 -66.640625 C 22.421875 -66.546875 21.851562 -66.5 21.28125 -66.5 C 19.882812 -66.4375 18.503906 -66.4375 17.140625 -66.5 C 15.785156 -66.5625 14.410156 -66.6875 13.015625 -66.875 C 12.316406 -67 11.523438 -67.078125 10.640625 -67.109375 C 9.753906 -67.148438 9.148438 -66.722656 8.828125 -65.828125 C 8.515625 -64.816406 8.515625 -63.722656 8.828125 -62.546875 C 9.148438 -61.378906 9.34375 -60.289062 9.40625 -59.28125 C 9.53125 -58.007812 9.59375 -56.722656 9.59375 -55.421875 C 9.59375 -54.128906 9.59375 -52.847656 9.59375 -51.578125 C 9.59375 -49.109375 9.5625 -46.640625 9.5 -44.171875 C 9.4375 -41.703125 9.40625 -39.203125 9.40625 -36.671875 C 9.40625 -32.171875 9.40625 -27.671875 9.40625 -23.171875 C 9.40625 -18.679688 9.375 -14.1875 9.3125 -9.6875 C 9.3125 -8.613281 9.328125 -7.519531 9.359375 -6.40625 C 9.390625 -5.300781 9.25 -4.210938 8.9375 -3.140625 C 8.800781 -2.503906 8.71875 -1.929688 8.6875 -1.421875 C 8.65625 -0.921875 8.863281 -0.445312 9.3125 0 Z M 9.3125 0 "/></g></g></g><g fill="#cdff00" fill-opacity="1"><g transform="translate(106.020187, 95.124982)"><g><path d="M 9.3125 0 C 10.007812 0.570312 10.769531 0.859375 11.59375 0.859375 C 12.539062 0.859375 13.457031 0.664062 14.34375 0.28125 C 15.226562 -0.0898438 16.144531 -0.25 17.09375 -0.1875 C 19.695312 -0.125 22.328125 -0.0625 24.984375 0 C 27.640625 0.0625 30.269531 0.0625 32.875 0 C 40.664062 0 48.46875 0.046875 56.28125 0.140625 C 64.101562 0.234375 71.910156 0.1875 79.703125 0 C 82.867188 -0.125 86.035156 -0.203125 89.203125 -0.234375 C 92.367188 -0.265625 95.535156 -0.0273438 98.703125 0.46875 C 99.398438 0.53125 100.144531 0.46875 100.9375 0.28125 C 101.726562 0.09375 102.09375 -0.472656 102.03125 -1.421875 C 102.03125 -1.742188 102 -2.0625 101.9375 -2.375 C 101.875 -2.6875 101.78125 -2.972656 101.65625 -3.234375 C 101.394531 -4.429688 101.359375 -5.582031 101.546875 -6.6875 C 101.742188 -7.800781 101.9375 -8.960938 102.125 -10.171875 C 102.25 -10.796875 102.296875 -11.582031 102.265625 -12.53125 C 102.234375 -13.488281 101.773438 -14.09375 100.890625 -14.34375 C 100.191406 -14.53125 99.460938 -14.46875 98.703125 -14.15625 C 97.941406 -13.84375 97.179688 -13.6875 96.421875 -13.6875 C 95.222656 -13.6875 94.414062 -13.75 94 -13.875 C 93.59375 -14 92.753906 -14.0625 91.484375 -14.0625 C 90.210938 -14.0625 88.925781 -14.046875 87.625 -14.015625 C 86.332031 -13.984375 85.054688 -13.96875 83.796875 -13.96875 C 79.867188 -13.90625 75.925781 -13.875 71.96875 -13.875 C 68.007812 -13.875 64.066406 -13.875 60.140625 -13.875 C 56.335938 -13.875 52.535156 -13.84375 48.734375 -13.78125 C 44.929688 -13.71875 41.128906 -13.75 37.328125 -13.875 C 36.378906 -13.875 35.414062 -13.921875 34.4375 -14.015625 C 33.457031 -14.109375 32.492188 -14.0625 31.546875 -13.875 C 30.910156 -13.75 30.164062 -13.539062 29.3125 -13.25 C 28.457031 -12.96875 27.710938 -13.113281 27.078125 -13.6875 C 26.753906 -14 26.5625 -14.375 26.5 -14.8125 C 26.4375 -15.257812 26.4375 -15.707031 26.5 -16.15625 C 26.625 -17.675781 26.75 -19.175781 26.875 -20.65625 C 27.007812 -22.144531 27.078125 -23.648438 27.078125 -25.171875 C 27.078125 -26.816406 27.078125 -28.476562 27.078125 -30.15625 C 27.078125 -31.84375 27.046875 -33.476562 26.984375 -35.0625 C 26.921875 -38.226562 26.875 -41.425781 26.84375 -44.65625 C 26.8125 -47.882812 26.828125 -51.050781 26.890625 -54.15625 C 26.890625 -55.800781 26.921875 -57.398438 26.984375 -58.953125 C 27.046875 -60.503906 27.203125 -62.070312 27.453125 -63.65625 C 27.515625 -63.96875 27.5625 -64.296875 27.59375 -64.640625 C 27.625 -64.992188 27.609375 -65.328125 27.546875 -65.640625 C 27.359375 -66.273438 26.976562 -66.6875 26.40625 -66.875 C 25.84375 -67.070312 25.273438 -67.101562 24.703125 -66.96875 C 24.128906 -66.84375 23.554688 -66.734375 22.984375 -66.640625 C 22.421875 -66.546875 21.851562 -66.5 21.28125 -66.5 C 19.882812 -66.4375 18.503906 -66.4375 17.140625 -66.5 C 15.785156 -66.5625 14.410156 -66.6875 13.015625 -66.875 C 12.316406 -67 11.523438 -67.078125 10.640625 -67.109375 C 9.753906 -67.148438 9.148438 -66.722656 8.828125 -65.828125 C 8.515625 -64.816406 8.515625 -63.722656 8.828125 -62.546875 C 9.148438 -61.378906 9.34375 -60.289062 9.40625 -59.28125 C 9.53125 -58.007812 9.59375 -56.722656 9.59375 -55.421875 C 9.59375 -54.128906 9.59375 -52.847656 9.59375 -51.578125 C 9.59375 -49.109375 9.5625 -46.640625 9.5 -44.171875 C 9.4375 -41.703125 9.40625 -39.203125 9.40625 -36.671875 C 9.40625 -32.171875 9.40625 -27.671875 9.40625 -23.171875 C 9.40625 -18.679688 9.375 -14.1875 9.3125 -9.6875 C 9.3125 -8.613281 9.328125 -7.519531 9.359375 -6.40625 C 9.390625 -5.300781 9.25 -4.210938 8.9375 -3.140625 C 8.800781 -2.503906 8.71875 -1.929688 8.6875 -1.421875 C 8.65625 -0.921875 8.863281 -0.445312 9.3125 0 Z M 9.3125 0 "/></g></g></g></g></g></g><g clip-path="url(#3f4643bf10)"><g transform="matrix(1, 0, 0, 1, 211, 0)"><g clip-path="url(#cf79aa49c0)"><g fill="#ffffff" fill-opacity="1"><g transform="translate(0.93178, 95.124982)"><g><path d="M 9.21875 0 C 9.53125 0.3125 9.90625 0.484375 10.34375 0.515625 C 10.789062 0.546875 11.238281 0.53125 11.6875 0.46875 C 13.144531 0.15625 14.773438 -0.09375 16.578125 -0.28125 C 18.378906 -0.46875 20.007812 -0.375 21.46875 0 C 21.976562 0.125 22.628906 0.265625 23.421875 0.421875 C 24.210938 0.585938 24.972656 0.632812 25.703125 0.5625 C 26.429688 0.5 26.921875 0.152344 27.171875 -0.46875 C 27.296875 -0.726562 27.359375 -0.96875 27.359375 -1.1875 C 27.359375 -1.40625 27.359375 -1.613281 27.359375 -1.8125 C 27.171875 -5.476562 27.09375 -9.128906 27.125 -12.765625 C 27.15625 -16.410156 26.914062 -20.039062 26.40625 -23.65625 C 26.21875 -24.988281 26.472656 -25.828125 27.171875 -26.171875 C 27.867188 -26.515625 28.753906 -26.640625 29.828125 -26.546875 C 30.898438 -26.453125 31.851562 -26.375 32.6875 -26.3125 C 38 -25.875 43.347656 -25.6875 48.734375 -25.75 C 53.929688 -25.75 59.125 -25.859375 64.3125 -26.078125 C 69.507812 -26.296875 74.703125 -26.375 79.890625 -26.3125 C 83.878906 -26.25 87.851562 -26.15625 91.8125 -26.03125 C 95.769531 -25.90625 99.742188 -25.78125 103.734375 -25.65625 C 104.941406 -25.65625 105.71875 -25.96875 106.0625 -26.59375 C 106.414062 -27.226562 106.578125 -28.019531 106.546875 -28.96875 C 106.515625 -29.925781 106.53125 -30.847656 106.59375 -31.734375 C 106.65625 -32.429688 106.796875 -33.253906 107.015625 -34.203125 C 107.234375 -35.148438 107.296875 -36.066406 107.203125 -36.953125 C 107.109375 -37.835938 106.617188 -38.503906 105.734375 -38.953125 C 104.273438 -39.648438 102.46875 -40 100.3125 -40 C 98.164062 -40 96.015625 -39.867188 93.859375 -39.609375 C 91.703125 -39.359375 89.832031 -39.234375 88.25 -39.234375 C 84.957031 -39.234375 81.664062 -39.234375 78.375 -39.234375 C 75.082031 -39.234375 71.789062 -39.203125 68.5 -39.140625 C 64.507812 -39.140625 60.519531 -39.125 56.53125 -39.09375 C 52.539062 -39.0625 48.515625 -39.046875 44.453125 -39.046875 C 42.941406 -39.046875 41.1875 -38.898438 39.1875 -38.609375 C 37.1875 -38.328125 35.222656 -38.1875 33.296875 -38.1875 C 31.367188 -38.1875 29.675781 -38.566406 28.21875 -39.328125 C 27.644531 -39.648438 27.164062 -40.519531 26.78125 -41.9375 C 26.40625 -43.363281 26.1875 -44.914062 26.125 -46.59375 C 26.0625 -48.269531 26.203125 -49.722656 26.546875 -50.953125 C 26.898438 -52.191406 27.488281 -52.8125 28.3125 -52.8125 C 35.84375 -52.75 43.410156 -52.71875 51.015625 -52.71875 C 58.617188 -52.71875 66.21875 -52.6875 73.8125 -52.625 C 77.613281 -52.625 81.394531 -52.625 85.15625 -52.625 C 88.925781 -52.625 92.710938 -52.59375 96.515625 -52.53125 C 97.210938 -52.53125 98.160156 -52.453125 99.359375 -52.296875 C 100.566406 -52.140625 101.753906 -52.03125 102.921875 -51.96875 C 104.097656 -51.90625 104.941406 -52 105.453125 -52.25 C 106.335938 -52.695312 106.78125 -53.171875 106.78125 -53.671875 C 106.78125 -54.179688 106.648438 -54.734375 106.390625 -55.328125 C 106.140625 -55.929688 106.015625 -56.582031 106.015625 -57.28125 C 106.015625 -58.425781 106.03125 -59.1875 106.0625 -59.5625 C 106.09375 -59.945312 106.109375 -60.707031 106.109375 -61.84375 C 106.109375 -62.988281 106.203125 -63.90625 106.390625 -64.59375 C 106.585938 -65.289062 106.507812 -65.8125 106.15625 -66.15625 C 105.8125 -66.507812 104.816406 -66.6875 103.171875 -66.6875 C 94.179688 -66.6875 85.171875 -66.671875 76.140625 -66.640625 C 67.117188 -66.609375 58.078125 -66.59375 49.015625 -66.59375 C 44.523438 -66.53125 40.03125 -66.5 35.53125 -66.5 C 31.03125 -66.5 26.535156 -66.5 22.046875 -66.5 C 21.347656 -66.5 20.378906 -66.578125 19.140625 -66.734375 C 17.910156 -66.890625 16.613281 -67.015625 15.25 -67.109375 C 13.882812 -67.210938 12.644531 -67.179688 11.53125 -67.015625 C 10.425781 -66.859375 9.6875 -66.460938 9.3125 -65.828125 C 8.863281 -65.003906 8.609375 -64.132812 8.546875 -63.21875 C 8.484375 -62.300781 8.484375 -61.398438 8.546875 -60.515625 C 8.867188 -55.640625 9.078125 -50.742188 9.171875 -45.828125 C 9.265625 -40.921875 9.3125 -36.03125 9.3125 -31.15625 C 9.25 -26.53125 9.359375 -21.921875 9.640625 -17.328125 C 9.921875 -12.742188 9.648438 -8.140625 8.828125 -3.515625 C 8.640625 -2.628906 8.578125 -1.804688 8.640625 -1.046875 C 8.765625 -0.535156 8.957031 -0.1875 9.21875 0 Z M 9.21875 0 "/></g></g></g></g></g></g></g></g></svg>